<?xml version="1.0" encoding="utf-8"?>
<!-- Generator: Adobe Illustrator 24.1.2, SVG Export Plug-In . SVG Version: 6.00 Build 0)  -->
<svg version="1.1" id="Livello_1" xmlns="http://www.w3.org/2000/svg" xmlns:xlink="http://www.w3.org/1999/xlink" x="0px" y="0px"
	 viewBox="0 0 512 512" style="enable-background:new 0 0 512 512;" xml:space="preserve">
<style type="text/css">
	.st0{fill:#FFFFFF;}
</style>
<path class="st0" d="M473.7,244.9l-53.1-10.5l-3,14.7l35.3,7v11.6c0,15.2,12.4,27.6,27.6,27.6H497v25.6c0,6.9-5.6,12.5-12.5,12.5
	h-13.1v15h13.1c15.2,0,27.6-12.4,27.6-27.6v-29.2C512,268.9,495.9,249.3,473.7,244.9z M480.4,280.2c-6.9,0-12.5-5.6-12.5-12.5v-8.6
	l2.8,0.6c11.3,2.2,20.3,10.2,24.2,20.6h-14.5V280.2z"/>
<path class="st0" d="M402.4,245.4l4.2-14.4c-20.7-6-39.8-15.8-56.9-29c-16.2-12.6-34.1-22.3-53.5-28.9c-11.4-3.9-23.2-6.7-35.1-8.3
	l-2,14.9c10.9,1.5,21.8,4.1,32.2,7.6c17.8,6.1,34.3,15,49.1,26.6c4.5,3.5,9.2,6.8,14,9.9c-6.9,4.6-15,7.2-23.5,7.2l-118-1.4
	L202.3,178c0,0,39.6,0.1,42.4,0.2l0.8-15c-3.1-0.2-139.1-0.2-139.1-0.2c-19.9,0-38.7,8.7-51.5,23.8L30,216.2
	c-6.4,7.5-9.9,17.1-9.9,27v1.3c0,7-2.8,13.9-7.8,18.9c-3.9,3.9-6.9,8.5-9,13.5C1.1,282,0,287.4,0,292.9v27.9
	c0,11.4,7.2,21.8,17.9,25.8l5.2-14.1c-4.9-1.8-8.1-6.5-8.1-11.7v-27.9c0-3.5,0.7-7,2-10.2c1.3-3.3,3.3-6.2,5.8-8.7
	c0.8-0.8,1.5-1.6,2.2-2.4l50.1-10.9v-40.6H46.4l20-23.5c10-11.8,24.6-18.5,40.1-18.5h9.5l-22.3,34.7l15.8,23l27.6,3.1l1.7-14.9
	l-20.8-2.3l-6.2-9.1l22.1-34.4H187l10.7,51.3l-12.4-0.1l-31.6-3.6l-1.7,14.9l32.4,3.6l15,0.2v89h-36.6v15h136.3v-15h-84.7v-88.8
	l116,1.4h0.7c13.9,0,27.2-5.1,37.5-14.1C379.3,237.4,390.6,242,402.4,245.4z M60.1,235.1v13.5l-26.2,5.7c0.8-3.2,1.2-6.5,1.2-9.8
	v-1.3c0-2.8,0.4-5.5,1.3-8.1L60.1,235.1L60.1,235.1z"/>
<path class="st0" d="M314.1,333.3h15v15h-15V333.3z"/>
<path class="st0" d="M91.7,286.2c-29,0-52.6,23.6-52.6,52.6c0,3.1,0.3,6.1,0.8,9.1l14.8-2.6c-0.4-2.1-0.6-4.3-0.6-6.5
	c0-20.7,16.9-37.6,37.6-37.6s37.6,16.9,37.6,37.6s-16.9,37.6-37.6,37.6c-5,0-9.9-1-14.5-2.9l-5.8,13.9c6.4,2.7,13.3,4.1,20.3,4.1
	c29,0,52.6-23.6,52.6-52.6C144.3,309.8,120.7,286.2,91.7,286.2z"/>
<path class="st0" d="M58.8,357.1l-13.1,7.3c2.9,5.1,6.5,9.7,10.9,13.6l10-11.2C63.5,364,60.9,360.8,58.8,357.1z"/>
<path class="st0" d="M367.4,357.1l-13.1,7.3c2.9,5.1,6.5,9.7,10.9,13.6l10-11.2C372.1,364,369.5,360.8,367.4,357.1z"/>
<path class="st0" d="M400.3,286.2c-29,0-52.6,23.6-52.6,52.6c0,3.1,0.3,6.1,0.8,9.1l14.8-2.6c-0.4-2.1-0.6-4.3-0.6-6.5
	c0-20.7,16.9-37.6,37.6-37.6s37.6,16.9,37.6,37.6s-16.9,37.6-37.6,37.6c-5,0-9.9-1-14.5-2.9l-5.8,13.9c6.4,2.7,13.3,4.1,20.3,4.1
	c29,0,52.6-23.6,52.6-52.6C452.9,309.8,429.3,286.2,400.3,286.2z"/>
<path class="st0" d="M290.1,276.2H260v-15h30.1V276.2z M245,276.2h-15v-15h15V276.2z"/>
</svg>
