<?xml version="1.0" encoding="utf-8"?>
<!-- Generator: Adobe Illustrator 24.0.1, SVG Export Plug-In . SVG Version: 6.00 Build 0)  -->
<svg version="1.1" id="Livello_1" xmlns="http://www.w3.org/2000/svg" xmlns:xlink="http://www.w3.org/1999/xlink" x="0px" y="0px"
	 viewBox="0 0 512 512" style="enable-background:new 0 0 512 512;" xml:space="preserve">
<style type="text/css">
	.st0{fill:#FFFFFF;}
</style>
<path class="st0" d="M48.1,361.6h308.1v-15H63.1v-90.4c0-8.4,0.7-16.7,2-24.8h75.6v-15H68.4c1.8-6.6,4-13,6.7-19.4l30.2-71.9
	c5.1-12.1,16.9-19.9,30-19.9h114v-15h-68.1l15-45.1h119.4l15,45.1h-66.3v15h112.3c13.1,0,24.9,7.8,30,19.9l8.2,19.4l13.9-5.8
	l-8.2-19.4c-7.4-17.7-24.7-29.1-43.9-29.1h-30.1l-20-60.1H185.5l-20,60.1h-30.1c-19.2,0-36.4,11.4-43.9,29.1l-24.4,58H34.6
	C15.5,177.3,0,192.8,0,211.9s15.5,34.6,34.6,34.6h13.8c-0.2,3.3-0.3,6.5-0.3,9.8v90.4h-15v55.1h34.1v52.6
	c0,15.2,12.4,27.6,27.6,27.6h40.1c15.2,0,27.6-12.4,27.6-27.6v-52.6h33.6v-15H48.1V361.6z M34.6,231.4c-10.8,0-19.5-8.8-19.5-19.5
	s8.8-19.5,19.5-19.5h26.2c-5.2,12.6-8.8,25.7-10.8,39.1H34.6z M82.2,401.7h65.1v52.6c0,6.9-5.6,12.5-12.5,12.5H94.7
	c-6.9,0-12.5-5.6-12.5-12.5V401.7z"/>
<path class="st0" d="M93.2,279v20c0,12.4,10.1,22.5,22.5,22.5h40.1c12.4,0,22.5-10.1,22.5-22.5v-20c0-12.4-10.1-22.5-22.5-22.5
	h-40.1C103.3,256.4,93.2,266.6,93.2,279z M163.3,279v20c0,4.1-3.4,7.5-7.5,7.5h-40.1c-4.1,0-7.5-3.4-7.5-7.5v-20
	c0-4.1,3.4-7.5,7.5-7.5h40.1C159.9,271.5,163.3,274.8,163.3,279z"/>
<path class="st0" d="M396.3,321.6c12.4,0,22.5-10.1,22.5-22.5v-20c0-12.4-10.1-22.5-22.5-22.5h-40.1c-12.4,0-22.5,10.1-22.5,22.5v20
	c0,12.4,10.1,22.5,22.5,22.5H396.3z M348.7,299v-20c0-4.1,3.4-7.5,7.5-7.5h40.1c4.1,0,7.5,3.4,7.5,7.5v20c0,4.1-3.4,7.5-7.5,7.5
	h-40.1C352.1,306.5,348.7,303.2,348.7,299z"/>
<path class="st0" d="M512,211.9c0-19.1-15.5-34.6-34.6-34.6h-32.5l-10.4-24.7l-13.9,5.8l16.2,38.6c2.7,6.3,4.9,12.8,6.7,19.4H155.8
	v15h291c1.3,8.2,2,16.5,2,24.8v90.4h-77.6v15h92.7v25h-253v15h138.8v52.6c0,15.2,12.4,27.6,27.6,27.6h40.1
	c15.2,0,27.6-12.4,27.6-27.6v-52.6h34.1v-55.1h-15v-90.4c0-3.3-0.1-6.5-0.3-9.8h13.8C496.5,246.4,512,230.9,512,211.9z M429.8,454.3
	c0,6.9-5.6,12.5-12.5,12.5h-40.1c-6.9,0-12.5-5.6-12.5-12.5v-52.6h65.1V454.3z M462.1,231.4c-2-13.4-5.6-26.4-10.8-39.1h26.2
	c10.8,0,19.5,8.8,19.5,19.5s-8.8,19.5-19.5,19.5H462.1z"/>
<path class="st0" d="M293.6,75.1h-15v-15h15V75.1z M263.5,75.1h-15v-15h15V75.1z M233.5,75.1h-15v-15h15V75.1z"/>
<path class="st0" d="M377.2,135.2h-50.1v-15h50.1V135.2z M312.1,135.2h-15v-15h15V135.2z"/>
<path class="st0" d="M215.9,266.5h80.2v15h-80.2V266.5z"/>
<path class="st0" d="M215.9,296.5h80.2v15h-80.2V296.5z"/>
</svg>
