<?xml version="1.0" encoding="utf-8"?>
<!-- Generator: Adobe Illustrator 24.1.2, SVG Export Plug-In . SVG Version: 6.00 Build 0)  -->
<svg version="1.1" id="Livello_1" xmlns="http://www.w3.org/2000/svg" xmlns:xlink="http://www.w3.org/1999/xlink" x="0px" y="0px"
	 viewBox="0 0 465 465" style="enable-background:new 0 0 465 465;" xml:space="preserve">
<style type="text/css">
	.st0{fill:#FFFFFF;}
</style>
<g>
	<path class="st0" d="M144.7,286.1H86.8c-12.6,0-22.8,10.2-22.8,22.8V388h12.4v-23.4h33.5v-12.4H76.5v-43.5
		c0-5.7,4.6-10.3,10.3-10.3h57.9c5.7,0,10.3,4.6,10.3,10.3V319h-33.5v12.4H155v53.8h-33.5v12.4H155v43.5c0,5.7-4.6,10.3-10.3,10.3
		H86.8c-5.7,0-10.3-4.6-10.3-10.3v-10.3H110v-12.4H76.5v-18H64v40.8c0,12.6,10.2,22.8,22.8,22.8h57.9c12.6,0,22.8-10.2,22.8-22.8
		V308.8C167.5,296.2,157.3,286.1,144.7,286.1z"/>
	<path class="st0" d="M96.7,319.2h12.4v12.4H96.7V319.2z"/>
	<path class="st0" d="M122.4,352.2h12.4v12.4h-12.4C122.4,364.6,122.4,352.2,122.4,352.2z"/>
	<path class="st0" d="M96.7,385.4h12.4v12.4H96.7V385.4z"/>
	<path class="st0" d="M110,426.1h12.4v12.4H110C110,438.5,110,426.1,110,426.1z"/>
	<path class="st0" d="M336.8,253.9l3.1,12l39-10.2l9.3-89.6l-54.4-8.9l-2,12.2l42.8,7l-7.2,69.4L336.8,253.9z"/>
	<path class="st0" d="M158.8,238.9c14.4,0,26.1-11.7,26.1-26.1c0-14.4-11.7-26.1-26.1-26.1h-18.2c-14.4,0-26.1,11.7-26.1,26.1
		c0,14.4,11.7,26.1,26.1,26.1H158.8z M126.9,212.8c0-7.5,6.1-13.6,13.6-13.6h18.2c7.5,0,13.6,6.1,13.6,13.6s-6.1,13.6-13.6,13.6
		h-18.2C133,226.4,126.9,220.3,126.9,212.8z"/>
	<path class="st0" d="M306.1,186.7c-14.4,0-26.1,11.7-26.1,26.1c0,14.4,11.7,26.1,26.1,26.1h18.2c14.4,0,26.1-11.7,26.1-26.1
		c0-14.4-11.7-26.1-26.1-26.1H306.1z M338,212.8c0,7.5-6.1,13.6-13.6,13.6h-18.2c-7.5,0-13.6-6.1-13.6-13.6s6.1-13.6,13.6-13.6h18.2
		C331.9,199.1,338,205.2,338,212.8z"/>
	<path class="st0" d="M378.2,286.1h-57.9c-12.6,0-22.8,10.2-22.8,22.8v132.4c0,12.6,10.2,22.8,22.8,22.8h57.9
		c12.6,0,22.8-10.2,22.8-22.8V334.2h-12.4v18h-33.5v12.4h33.5v53.8h-33.5v12.4h33.5v10.3c0,5.7-4.6,10.3-10.3,10.3h-57.9
		c-5.7,0-10.3-4.6-10.3-10.3v-43.5h33.5v-12.4h-33.5v-53.8h33.5V319h-33.5v-10.3c0-5.7,4.6-10.3,10.3-10.3h57.9
		c5.7,0,10.3,4.6,10.3,10.3v13H401v-13C400.9,296.2,390.7,286.1,378.2,286.1z"/>
	<path class="st0" d="M355.8,319.2h12.4v12.4h-12.4V319.2z"/>
	<path class="st0" d="M330.2,352.2h12.4v12.4h-12.4V352.2z"/>
	<path class="st0" d="M355.8,385.4h12.4v12.4h-12.4V385.4z"/>
	<path class="st0" d="M317.8,426.1h12.4v12.4h-12.4V426.1z"/>
	<path class="st0" d="M333.9,41v14.9h-39.8l-34,43h-55.3l-34-43H131V41H52.4v42.2h78.7V68.3h33.8l30,38l-15,43L76.7,166.2l5,48
		l12.3-1.3l-3.8-36.4l94.7-15.5h95l39.7,6.5l2-12.2l-36.5-5.9l-15-43l30-38h33.8v14.9h78.7V41H333.9z M118.7,70.8H64.8V53.4h53.8
		L118.7,70.8L118.7,70.8z M271.7,148.7h-78.5l13.1-37.3h52.5L271.7,148.7z M400.1,70.8h-53.8V53.4h53.8V70.8z"/>
	<path class="st0" d="M263.5,326.5l11.6-5l8.2-40.7l44.6-11.6l-3.1-12l-52.1,13.5l-8.4,42.1l-32.6,14.1l-31-14.1l-8.4-42.1
		l-94.8-24.8l-2.1-20.7l-12.3,1.3l3.1,29.2l95.6,25l8.2,40.7l11.6,5.3v29.7H181v37.3h35.2v-12.4h-22.8v-12.4h78.6v12.4h-43.5v12.4
		h55.9v-37.3h-20.7L263.5,326.5L263.5,326.5z M251.1,356.4h-37.2v-24l17.8,8.1l19.5-8.5v24.4H251.1z"/>
	<path class="st0" d="M251.1,136.2h-12.4v-12.4h12.4V136.2z M226.2,136.2h-12.3v-12.4h12.4v12.4H226.2z"/>
	<path class="st0" d="M263.5,206.6h-12.4v-12.4h12.4V206.6z M238.6,206.6h-12.4v-12.4h12.4V206.6z M213.9,206.6h-12.4v-12.4h12.4
		V206.6z"/>
	<path class="st0" d="M263.5,231.4h-12.4V219h12.4V231.4z M238.6,231.4h-12.4V219h12.4V231.4z M213.9,231.4h-12.4V219h12.4V231.4z"
		/>
</g>
</svg>
