<?xml version="1.0" encoding="utf-8"?>
<!-- Generator: Adobe Illustrator 24.0.1, SVG Export Plug-In . SVG Version: 6.00 Build 0)  -->
<svg version="1.1" id="Livello_1" xmlns="http://www.w3.org/2000/svg" xmlns:xlink="http://www.w3.org/1999/xlink" x="0px" y="0px"
	 viewBox="0 0 512 512" style="enable-background:new 0 0 512 512;" xml:space="preserve">
<style type="text/css">
	.st0{fill:#FFFFFF;}
</style>
<path class="st0" d="M154.2,432.3v-46.9h-15v46.9c0,20.7,16.9,37.6,37.6,37.6h19v-15h-19C164.3,454.9,154.2,444.8,154.2,432.3z"/>
<path class="st0" d="M359.6,432.3c0,12.4-10.1,22.5-22.5,22.5h-19v15h19c20.7,0,37.6-16.9,37.6-37.6V278.2h-15V432.3z"/>
<path class="st0" d="M334.5,394.3c0-23-10-49.6-26-69.3l-11.7,9.5c12,14.8,20.3,34.5,22.2,52.3H194.6c3.6-35,31.3-75.1,62.2-75.1h0
	c2.5,0,5.1,0.3,7.6,0.8l3.1-14.7c-3.5-0.7-7.1-1.1-10.7-1.1h0c-20.3,0-40.1,12-55.7,33.7c-13.7,19.2-21.9,43.1-21.9,64v7.5h35.1
	v72.6c0,20.7,16.9,37.6,37.6,37.6h10c20.7,0,37.6-16.9,37.6-37.6v-25.8h-15v25.8c0,12.4-10.1,22.5-22.5,22.5h-10
	c-12.4,0-22.5-10.1-22.5-22.5v-72.6h55.1v31.8h15v-31.8h35.1V394.3z"/>
<path class="st0" d="M276.5,316.9c3.7,2,7.4,4.6,10.9,7.7l9.9-11.3c-4.4-3.8-9-7-13.6-9.6L276.5,316.9z"/>
<path class="st0" d="M438.7,138.3V89.2h-85.2v16h-32.9c-2.8-5.7-7-10.6-12.2-14.2V73.2l35.7-18.6c6,6.5,14.5,10.5,24,10.5
	c18,0,32.6-14.6,32.6-32.6c0-18-14.6-32.6-32.6-32.6c-18,0-32.6,14.6-32.6,32.6c0,3.1,0.4,6.1,1.3,8.9l-43.3,22.6v20.7
	c-2.1-0.4-4.3-0.6-6.5-0.6h-60.1c-2.2,0-4.4,0.2-6.5,0.6V64.1L177,41.5c0.8-2.8,1.3-5.8,1.3-8.9c0-18-14.6-32.6-32.6-32.6
	c-18,0-32.6,14.6-32.6,32.6c0,18,14.6,32.6,32.6,32.6c9.5,0,18-4.1,24-10.5l35.7,18.6V91c-5.2,3.6-9.4,8.5-12.2,14.2h-32.9v-16H75
	v49.1h85.2v-18h29.1c0,0.5,0,1,0,1.5v23.9c-30.3,21.3-50.1,56.5-50.1,96.3v128.4h15V242c0-56.6,46.1-102.7,102.7-102.7
	c2.8,0,5.6,0.1,8.4,0.3l1.2-15c-3.2-0.3-6.4-0.4-9.6-0.4c-18.9,0-36.8,4.5-52.6,12.4v-14.9c0-12.4,10.1-22.5,22.5-22.5h60.1
	c12.4,0,22.5,10.1,22.5,22.5v14.9c-8.6-4.3-17.7-7.6-27.1-9.7l-3.2,14.7c46.6,10.3,80.5,52.5,80.5,100.3v21.2h15V242
	c0-27-9.4-53.3-26.3-74.2c-6.9-8.5-14.9-15.9-23.8-22.1v-23.9c0-0.5,0-1,0-1.5h29.1v18H438.7z M368.6,104.2h55.1v19h-55.1V104.2z
	 M368.1,15c9.7,0,17.5,7.9,17.5,17.5s-7.9,17.5-17.5,17.5s-17.5-7.9-17.5-17.5S358.4,15,368.1,15z M145.6,50.1
	c-9.7,0-17.5-7.9-17.5-17.5S136,15,145.6,15s17.5,7.9,17.5,17.5S155.3,50.1,145.6,50.1z M145.1,123.2H90v-19h55.1V123.2z"/>
<path class="st0" d="M256.9,176.3c-26.2,0-47.6,21.4-47.6,47.6s21.4,47.6,47.6,47.6s47.6-21.4,47.6-47.6S283.1,176.3,256.9,176.3z
	 M256.9,256.5c-18,0-32.6-14.6-32.6-32.6s14.6-32.6,32.6-32.6c18,0,32.6,14.6,32.6,32.6S274.8,256.5,256.9,256.5z"/>
<path class="st0" d="M344.5,302.1h-15v-15h15V302.1z M344.5,272h-15V232h15V272z"/>
<path class="st0" d="M282.4,367.5c-6.4-13.1-16.1-23.6-23.5-25.6l3.8-14.5c14.2,3.7,26.4,19.8,33.1,33.5L282.4,367.5z"/>
</svg>
