<?xml version="1.0" encoding="utf-8"?>
<!-- Generator: Adobe Illustrator 24.1.2, SVG Export Plug-In . SVG Version: 6.00 Build 0)  -->
<svg version="1.1" id="Livello_1" xmlns="http://www.w3.org/2000/svg" xmlns:xlink="http://www.w3.org/1999/xlink" x="0px" y="0px"
	 viewBox="0 0 360.7 360.7" style="enable-background:new 0 0 360.7 360.7;" xml:space="preserve">
<style type="text/css">
	.st0{fill:#FFFFFF;}
</style>
<g>
	<path id="svg_1" class="st0" d="M229.8,118.4c-0.2-0.1-0.3-0.2-0.5-0.3c-0.2-0.1-0.3-0.2-0.5-0.3c-13.7-7.8-29.5-12.3-46.4-12.3
		c-16.9,0-32.7,4.5-46.4,12.3c-0.2,0.1-0.3,0.2-0.5,0.3c-0.2,0.1-0.3,0.2-0.5,0.3c-27.7,16.3-46.4,46.5-46.4,80.9
		s18.7,64.6,46.4,80.9c0.2,0.1,0.3,0.2,0.5,0.3c0.2,0.1,0.3,0.2,0.5,0.3c13.7,7.8,29.5,12.3,46.4,12.3c16.9,0,32.7-4.5,46.4-12.3
		c0.2-0.1,0.3-0.2,0.5-0.3c0.2-0.1,0.3-0.2,0.5-0.3c27.7-16.3,46.4-46.5,46.4-80.9C276.2,164.9,257.5,134.8,229.8,118.4L229.8,118.4
		z M182.4,121.6c11.3,0,22.1,2.4,31.8,6.8l-21,36.4c-3.4-1.1-7-1.6-10.7-1.6c-3.7,0-7.3,0.6-10.7,1.6l-21-36.4
		C160.3,124,171.1,121.6,182.4,121.6z M202.6,199.4c0,11.2-9.1,20.2-20.2,20.2c-11.2,0-20.2-9.1-20.2-20.2
		c0-11.2,9.1-20.2,20.2-20.2C193.5,179.1,202.6,188.2,202.6,199.4z M136.8,136.4l21,36.4c-5.3,4.9-9.1,11.3-10.8,18.6h-42
		C107.3,168.8,119.3,149.1,136.8,136.4z M105,207.4h42c1.6,7.3,5.5,13.7,10.8,18.6l-21,36.4C119.3,249.7,107.3,229.9,105,207.4z
		 M182.4,277.1c-11.3,0-22.1-2.4-31.8-6.8l21-36.4c3.4,1.1,7,1.6,10.7,1.6c3.7,0,7.3-0.6,10.7-1.6l21,36.4
		C204.4,274.7,193.7,277.1,182.4,277.1z M228,262.3L207,226c5.3-4.9,9.1-11.3,10.8-18.6h42C257.4,229.9,245.4,249.7,228,262.3z
		 M217.7,191.4c-1.6-7.3-5.5-13.7-10.8-18.6l21-36.4c17.5,12.7,29.5,32.4,31.8,55H217.7L217.7,191.4z M302.4,182.1
		c-0.6,0.1-1.1,0.2-1.7,0.2c-3.7,0-7-2.6-7.8-6.4c-9.2-43.7-43.4-77.9-87.1-87.1c-4.3-0.9-7.1-5.2-6.2-9.5c0.9-4.3,5.2-7.1,9.5-6.2
		c49.9,10.5,89,49.6,99.5,99.5C309.5,177,306.7,181.2,302.4,182.1L302.4,182.1z M165.1,319.4c-0.8,3.8-4.1,6.4-7.8,6.4
		c-0.5,0-1.1-0.1-1.7-0.2c-49.9-10.5-89-49.6-99.5-99.5c-0.9-4.3,1.9-8.6,6.2-9.5c4.3-0.9,8.6,1.9,9.5,6.2
		c9.2,43.7,43.4,77.9,87.1,87.1C163.3,310.8,166,315.1,165.1,319.4z M182.4,191.4L182.4,191.4c4.4,0,8,3.6,8,8c0,4.4-3.6,8-8,8
		s-8-3.6-8-8C174.4,194.9,177.9,191.4,182.4,191.4z M182.4,39C93.9,39,22,110.9,22,199.4s71.9,160.4,160.4,160.4
		c88.4,0,160.4-71.9,160.4-160.4S270.8,39,182.4,39z M182.4,343.7C102.8,343.7,38,279,38,199.4S102.8,55,182.4,55
		c79.6,0,144.4,64.8,144.4,144.4S262,343.7,182.4,343.7z"/>
	<g id="svg_2">
	</g>
	<g id="svg_3">
	</g>
	<g id="svg_4">
	</g>
	<g id="svg_5">
	</g>
	<g id="svg_6">
	</g>
	<g id="svg_7">
	</g>
	<g id="svg_8">
	</g>
	<g id="svg_9">
	</g>
	<g id="svg_10">
	</g>
	<g id="svg_11">
	</g>
	<g id="svg_12">
	</g>
	<g id="svg_13">
	</g>
	<g id="svg_14">
	</g>
	<g id="svg_15">
	</g>
	<g id="svg_16">
	</g>
</g>
</svg>
