<?xml version="1.0" encoding="utf-8"?>
<!-- Generator: Adobe Illustrator 24.1.2, SVG Export Plug-In . SVG Version: 6.00 Build 0)  -->
<svg version="1.1" id="Capa_1" xmlns="http://www.w3.org/2000/svg" xmlns:xlink="http://www.w3.org/1999/xlink" x="0px" y="0px"
	 viewBox="0 0 512 512" style="enable-background:new 0 0 512 512;" xml:space="preserve">
<g>
	<g>
		<g>
			<g>
				<path d="M379.7,170.3c-5.5,0-10-4.5-10-10V92c0-5.5,4.5-10,10-10s10,4.5,10,10v68.4C389.7,165.9,385.2,170.3,379.7,170.3z"/>
			</g>
		</g>
		<g>
			<g>
				<circle cx="379.6" cy="59.8" r="10"/>
			</g>
		</g>
		<g>
			<path d="M484.6,105.1c0-58-47.1-105.1-105-105.1c-24,0-46.1,8.1-63.8,21.6H63.7c-20,0-36.3,16.4-36.3,36.4v363.8
				c0,20.1,16.3,36.4,36.4,36.4h31.7v17.4c0,20.1,16.3,36.4,36.4,36.4h261.5c20.1,0,36.4-16.3,36.4-36.4V336.9c0-5.5-4.5-10-10-10
				s-10,4.5-10,10v138.7c0,9-7.4,16.4-16.4,16.4H131.9c-9,0-16.4-7.4-16.4-16.4v-17.4h209.7c20.1,0,36.4-16.3,36.4-36.4V208.6
				c5.9,1,11.9,1.5,18,1.5c10.5,0,20.6-1.5,30.1-4.4v40.8c0,5.5,4.5,10,10,10s10-4.5,10-10v-49.1
				C462.4,179.5,484.6,144.8,484.6,105.1L484.6,105.1z M341.6,421.8c0,9-7.4,16.4-16.4,16.4H63.7c-9,0-16.4-7.4-16.4-16.4V58
				c0-9,7.4-16.4,16.4-16.4h232.2c-12.6,16.5-20.3,36.9-21.2,59H104.4c-5.5,0-10,4.5-10,10v42.2c0,5.5,4.5,10,10,10h180.2
				c2.3,0,4.4-0.8,6-2c11.9,19,29.8,33.9,51,42.2V421.8z M274.6,120.6v22.2H114.4v-22.2L274.6,120.6z M379.6,190.1
				c-46.9,0-85-38.2-85-85.1s38.1-85.1,85-85.1s85,38.2,85,85.1S426.5,190.1,379.6,190.1z"/>
			<g>
				<g>
					<path d="M419.7,301.5c-4.1,0-7.9-2.6-9.3-6.5c-1.5-3.9-0.3-8.6,3-11.3c3.3-2.7,8-3,11.6-0.8s5.4,6.6,4.5,10.8
						C428.4,298.3,424.3,301.5,419.7,301.5z"/>
				</g>
			</g>
		</g>
		<g>
			<g>
				<g>
					<g>
						<path d="M284.6,217.6H104.4c-5.5,0-10-4.5-10-10s4.5-10,10-10h180.2c5.5,0,10,4.5,10,10S290.1,217.6,284.6,217.6z"/>
					</g>
				</g>
				<g>
					<g>
						<path d="M284.6,265.1H104.4c-5.5,0-10-4.5-10-10s4.5-10,10-10h180.2c5.5,0,10,4.5,10,10S290.1,265.1,284.6,265.1z"/>
					</g>
				</g>
				<g>
					<g>
						<path d="M284.6,312.5H104.4c-5.5,0-10-4.5-10-10s4.5-10,10-10h180.2c5.5,0,10,4.5,10,10S290.1,312.5,284.6,312.5z"/>
					</g>
				</g>
				<g>
					<g>
						<path d="M284.6,359.9H104.4c-5.5,0-10-4.5-10-10s4.5-10,10-10h180.2c5.5,0,10,4.5,10,10S290.1,359.9,284.6,359.9z"/>
					</g>
				</g>
			</g>
		</g>
	</g>
</g>
</svg>
