<?xml version="1.0" encoding="utf-8"?>
<!-- Generator: Adobe Illustrator 24.1.2, SVG Export Plug-In . SVG Version: 6.00 Build 0)  -->
<svg version="1.1" id="Layer_1" xmlns="http://www.w3.org/2000/svg" xmlns:xlink="http://www.w3.org/1999/xlink" x="0px" y="0px"
	 viewBox="0 0 512 512" style="enable-background:new 0 0 512 512;" xml:space="preserve">
<style type="text/css">
	.st0{fill:#FFFFFF;}
</style>
<path class="st0" d="M305.3,201.9c-13.5-13.5-35.2-13.5-48.7,0l-29.4,29.4c-7.8,7.8-7.8,20.4,0,28.3l8.8,8.8l-60.8,60.8
	c-0.8,0.8-1.4,1.9-1.6,3.1l-3.6,24.8c-0.5,3,1.6,5.8,4.7,6.2c0.3,0,0.5,0.1,0.7,0.1c0.1,0,0.3,0,0.4,0l31.9-2.3
	c2.7-0.2,4.8-2.3,5-4.9l1.7-16.7l16.8-1.8c3-0.3,5.1-3,4.9-5.9l-1.4-14.8l4.9-4.9l13.7,1.6c1.7,0.2,3.4-0.5,4.6-1.6l10.3-10.8
	l9.5,9.5c7.8,7.8,20.4,7.8,28.3,0l29.4-29.4c13.5-13.5,13.5-35.2,0-48.7L305.3,201.9z M252.3,302l-13.6-1.6
	c-1.6-0.2-3.3,0.4-4.5,1.6l-8.6,8.6c-1.2,1.2-1.7,2.7-1.6,4.4l1.1,12l-15.9,1.7c-2.6,0.3-4.6,2.3-4.9,4.9l-1.7,16.7l-20.6,1.5
	l2.3-16.3l59.5-59.5l17,17L252.3,302z M327.9,273.2l-29.4,29.4c-3.5,3.5-9.2,3.5-12.7,0l-50.9-50.9c-3.5-3.5-3.5-9.2,0-12.7
	l29.4-29.4c9.2-9.2,24-9.2,33.2,0l30.4,30.4C337.1,249.1,337.1,264,327.9,273.2L327.9,273.2z"/>
<path class="st0" d="M290.7,222.6L290.7,222.6c-5.9-5.9-15.5-5.9-21.4,0l-6.7,6.7c-2.1,2.1-2.1,5.6,0,7.8l37.9,37.9
	c2.1,2.1,5.6,2.1,7.8,0l6.7-6.7c5.9-5.9,5.9-15.5,0-21.4L290.7,222.6z M307.1,260.5l-2.7,2.7l-30.1-30.1l2.7-2.7
	c1.6-1.6,4.3-1.6,5.9,0l24.3,24.3C308.8,256.2,308.8,258.9,307.1,260.5z"/>
<path class="st0" d="M47.5,352.5c-3,0-5.5,2.5-5.5,5.5s2.5,5.5,5.5,5.5h57.7v30.8c-0.2,19.7,15.7,35.8,35.4,36c0.2,0,0.4,0,0.5,0
	H172V488c0,3,2.5,5.5,5.5,5.5s5.5-2.5,5.5-5.5v-57.7h69.6V488c0,3,2.5,5.5,5.5,5.5c3,0,5.5-2.5,5.5-5.5v-57.7h69.6V488
	c0,3,2.5,5.5,5.5,5.5c3,0,5.5-2.5,5.5-5.5v-57.7h30.8c19.7,0.2,35.8-15.7,36-35.4c0-0.2,0-0.4,0-0.5v-30.8h57.7c3,0,5.5-2.5,5.5-5.5
	s-2.5-5.5-5.5-5.5h-57.7v-69.6h57.7c3,0,5.5-2.5,5.5-5.5c0-3-2.5-5.5-5.5-5.5h-57.7v-69.6h57.7c3,0,5.5-2.5,5.5-5.5
	s-2.5-5.5-5.5-5.5h-57.7v-30.8c0.2-19.7-15.7-35.8-35.4-36c-0.2,0-0.4,0-0.5,0H344V66.9c0-3-2.5-5.5-5.5-5.5c-3,0-5.5,2.5-5.5,5.5
	v57.7h-69.6V66.9c0-3-2.5-5.5-5.5-5.5c-3,0-5.5,2.5-5.5,5.5v57.7h-69.6V66.9c0-3-2.5-5.5-5.5-5.5s-5.5,2.5-5.5,5.5v57.7h-30.8
	c-19.7-0.2-35.8,15.7-36,35.4c0,0.2,0,0.4,0,0.5v30.8H47.5c-3,0-5.5,2.5-5.5,5.5s2.5,5.5,5.5,5.5h57.7V272H47.5
	c-3,0-5.5,2.5-5.5,5.5c0,3,2.5,5.5,5.5,5.5h57.7v69.6H47.5z M141.1,135.6h35.6c0.2,0,0.5,0,0.6,0c0.2,0,0.5,0,0.6,0h79.4
	c0.2,0,0.5,0,0.6,0c0.2,0,0.5,0,0.6,0H338c0.2,0,0.5,0,0.6,0c0.2,0,0.5,0,0.6,0h35.6c13.6-0.2,24.8,10.8,25,24.4c0,0.2,0,0.4,0,0.5
	v35.6c0,0.2,0,0.5,0,0.6c0,0.2,0,0.5,0,0.6v79.4c0,0.2,0,0.5,0,0.6c0,0.2,0,0.5,0,0.6v79.4c0,0.2,0,0.5,0,0.6c0,0.2,0,0.5,0,0.6
	v35.6c0.2,13.6-10.8,24.8-24.4,25c-0.2,0-0.4,0-0.5,0h-35.6c-0.2,0-0.5,0-0.6,0c-0.2,0-0.5,0-0.6,0h-79.4c-0.2,0-0.5,0-0.6,0
	s-0.5,0-0.6,0H178c-0.2,0-0.5,0-0.6,0c-0.2,0-0.5,0-0.6,0h-35.6c-13.6,0.2-24.8-10.8-25-24.4c0-0.2,0-0.4,0-0.5v-35.6
	c0-0.2,0-0.5,0-0.6c0-0.2,0-0.5,0-0.6v-79.4c0-0.2,0-0.5,0-0.6c0-0.2,0-0.5,0-0.6v-79.4c0-0.2,0-0.5,0-0.6c0-0.2,0-0.5,0-0.6v-35.6
	c-0.2-13.6,10.8-24.8,24.4-25C140.8,135.6,140.9,135.6,141.1,135.6z"/>
<path class="st0" d="M376.1,165.8c0-3-2.5-5.5-5.5-5.5H146.3c-3,0-5.5,2.5-5.5,5.5V390c0,3,2.5,5.5,5.5,5.5h224.2
	c3,0,5.5-2.5,5.5-5.5V165.8z M151.8,171.3h212.3v212.3H151.8V171.3z"/>
</svg>
