<?xml version="1.0" encoding="utf-8"?>
<!-- Generator: Adobe Illustrator 24.1.2, SVG Export Plug-In . SVG Version: 6.00 Build 0)  -->
<svg version="1.1" id="Livello_1" xmlns="http://www.w3.org/2000/svg" xmlns:xlink="http://www.w3.org/1999/xlink" x="0px" y="0px"
	 viewBox="0 0 512 512" style="enable-background:new 0 0 512 512;" xml:space="preserve">
<style type="text/css">
	.st0{fill:#FFFFFF;}
</style>
<path id="svg_2" class="st0" d="M404.4,62.3c-35-26.2-78.1-37.2-121.3-31s-81.5,28.9-107.7,63.9c-26.2,35-37.2,78.1-31,121.3
	c4.4,30.8,17.2,59,36.7,82.2L160.7,326c-2.2,2.9-1.6,7,1.3,9.2l5.7,4.3L67.1,457.6c-5.9,7-8.6,15.9-7.6,25c1,9.1,5.7,17.2,13,22.7
	c7.1,5.3,15.7,7.5,24.5,6.3c0.3,0,0.7-0.1,1-0.2c9-1.6,16.8-6.6,21.9-14.3L205,367.4l5.7,4.3c1.5,1.1,3.2,1.5,4.9,1.2
	c1.7-0.2,3.2-1.1,4.3-2.6l20.5-27.4c28.2,12.4,59.2,16.5,89.3,12.2c23.5-3.4,46.5-11.9,67.2-25.6c3-2,3.8-6.1,1.8-9.1
	c-2-3-6.1-3.8-9.1-1.8c-52.9,35.2-122.6,33.2-173.5-4.9c-32.2-24.1-53-59.3-58.7-99.1c-5.7-39.8,4.4-79.4,28.5-111.6
	c49.7-66.4,144.2-80,210.6-30.2c32.2,24.1,53,59.3,58.7,99.1s-4.4,79.4-28.5,111.6c-3.8,5.1-8,10-12.5,14.6
	c-2.5,2.6-2.5,6.8,0.2,9.3c2.6,2.5,6.8,2.5,9.3-0.2c4.8-5,9.4-10.3,13.5-15.9c26.2-35,37.2-78.1,31-121.3
	C462.1,126.7,439.4,88.5,404.4,62.3L404.4,62.3z M108.9,489.9c-3.1,4.6-7.7,7.7-13.2,8.6c-5.4,0.9-10.9-0.4-15.3-3.7
	c-4.4-3.3-7.2-8.2-7.8-13.6c-0.6-5.5,1-10.8,4.5-15L91,449.9l29.6,22.2L108.9,489.9L108.9,489.9z M127.9,461l-28.3-21.2l17-20
	l25.7,19.3L127.9,461z M149.5,428l-24.4-18.3l53.1-62.4l16.3,12.2L149.5,428L149.5,428z M208.2,324.2c6.5,4.8,13.2,9.1,20.2,12.9
	l-15,20.1l-38.2-28.6l15-20.1C195.8,314.1,201.8,319.4,208.2,324.2L208.2,324.2z"/>
<path id="svg_3" class="st0" d="M183.1,187.3c-3.6,0-6.6,3-6.5,6.6c0,5.9,0.5,11.9,1.3,17.7c10.2,70.8,76,120.1,146.8,110
	c70.8-10.2,120.1-76,110-146.8c-10.2-70.8-76-120.1-146.8-110c-26,3.7-50,15.1-69.3,32.8c-18.8,17.3-32,39.6-38.2,64.3
	c-0.9,3.5,1.3,7.1,4.8,8c3.5,0.9,7.1-1.3,8-4.8c5.5-22.2,17.4-42.2,34.3-57.8c17.3-15.9,38.9-26.1,62.3-29.5
	c63.6-9.1,122.8,35.2,131.9,98.8c9.1,63.6-35.2,122.8-98.8,131.9S200.1,273.4,191,209.8c-0.8-5.3-1.2-10.7-1.2-16
	C189.7,190.2,186.8,187.3,183.1,187.3L183.1,187.3z"/>
<path id="svg_4" class="st0" d="M307,121.6c-10.9-0.1-19.8,8.6-19.9,19.5l-0.3,32.2l-32.2-0.3c-10.9-0.1-19.8,8.6-19.9,19.5
	c-0.1,10.9,8.6,19.8,19.5,19.9l32.2,0.3l-0.3,32.2c-0.1,10.9,8.6,19.8,19.5,19.9s19.8-8.6,19.9-19.5l0.3-32.2l32.2,0.3
	c10.9,0.1,19.8-8.6,19.9-19.5c0.1-10.9-8.6-19.8-19.5-19.9l-32.2-0.3l0.3-32.2C326.7,130.6,317.9,121.7,307,121.6z M358.3,187.2
	c3.6,0,6.5,3,6.5,6.6c0,3.6-3,6.5-6.6,6.5l-38.8-0.4c-3.6,0-6.6,2.9-6.6,6.5l-0.4,38.8c0,3.6-3,6.5-6.6,6.5s-6.5-3-6.5-6.6l0.4-38.8
	c0-3.6-2.9-6.6-6.5-6.6l-38.8-0.4c-3.6,0-6.5-3-6.5-6.6s3-6.5,6.6-6.5l38.8,0.4c3.6,0,6.6-2.9,6.6-6.5l0.4-38.8c0-3.6,3-6.5,6.6-6.5
	s6.5,3,6.5,6.6l-0.4,38.8c0,3.6,2.9,6.6,6.5,6.6L358.3,187.2z"/>
</svg>
