<svg id="Capa_1" enable-background="new 0 0 511.656 511.656" height="512" viewBox="0 0 511.656 511.656" width="512" xmlns="http://www.w3.org/2000/svg"><g><g><g><path d="m466.185 86.548c-2.938 0-5.727-1.737-6.926-4.618-1.593-3.824.216-8.215 4.04-9.807l22.176-9.236-11.682-6.975c-4.824-2.88-6.866-8.778-4.857-14.024l5.813-15.173-14.337 7.643c-4.957 2.643-11.063 1.346-14.518-3.085l-8.365-10.731-6.425 23.147c-1.108 3.991-5.24 6.328-9.232 5.221-3.991-1.108-6.329-5.242-5.221-9.233l8.268-29.788c1.172-4.222 4.57-7.375 8.868-8.227 4.297-.851 8.642.765 11.336 4.221l10.808 13.864 19.954-10.637c4.29-2.287 9.414-1.685 13.058 1.533 3.643 3.217 4.873 8.229 3.134 12.767l-8.09 21.118 15.094 9.011c3.761 2.245 5.904 6.355 5.59 10.725-.313 4.371-3.021 8.133-7.066 9.818l-28.539 11.886c-.942.394-1.92.58-2.881.58z"/></g></g><g><path d="m402.154 488.748c-.094-.028-9.654-2.974-18.476-10.467-11.61-9.862-16.555-22.806-14.698-38.471.488-4.113-2.452-7.843-6.565-8.331-4.109-.491-7.843 2.451-8.331 6.565-3.096 26.115 9.103 42.512 19.882 51.668 11.364 9.653 23.449 13.277 23.958 13.427.706.208 1.417.306 2.118.306 3.242 0 6.232-2.119 7.192-5.388 1.17-3.973-1.106-8.141-5.08-9.309z"/><path d="m364 495.906c-.697-.328-17.108-8.283-19.897-29.024-.552-4.104-4.324-6.986-8.433-6.434-4.105.552-6.986 4.328-6.434 8.433 3.922 29.16 27.506 40.203 28.508 40.658 1.01.459 2.069.677 3.113.677 2.854 0 5.586-1.627 6.842-4.388 1.716-3.77.072-8.207-3.699-9.922z"/><path d="m508.012 368.352-21.578-25.105c-2.701-3.141-7.435-3.499-10.577-.799-3.141 2.7-3.499 7.436-.799 10.577l21.536 25.061h-17.953c-6.866 0-12.453 5.586-12.453 12.452v57.789h-59.62v-57.789c0-6.866-5.586-12.452-12.452-12.452l-17.954-.003 60.198-70.083 15.82 18.408c2.7 3.143 7.436 3.5 10.576.8 3.142-2.7 3.5-7.435.8-10.576l-15.82-18.409c-.957-1.113-2.069-2.051-3.276-2.826v-216.881c0-9.505-7.732-17.238-17.237-17.238h-409.986c-9.505 0-17.237 7.733-17.237 17.238v281.09c0 9.505 7.732 17.237 17.237 17.237h343.923c-.21 2.512.22 5.09 1.334 7.516 2.471 5.382 7.685 8.726 13.608 8.726h15.467v56.183c0 7.751 6.307 14.058 14.058 14.058h61.504c7.751 0 14.058-6.307 14.058-14.058v-56.183h15.468c5.922 0 11.137-3.344 13.608-8.726 2.47-5.382 1.608-11.516-2.253-16.007zm-78.553-73.624c-1.665.87-3.179 2.036-4.434 3.495l-35.809 41.661-104.964-81.928 145.207-76.584zm-412.222 67.115c-1.234 0-2.237-1.003-2.237-2.237v-178.234l44.916 23.689c1.116.589 2.313.868 3.493.868 2.693 0 5.296-1.455 6.64-4.002 1.933-3.664.529-8.201-3.135-10.133l-51.914-27.38v-85.898c0-1.234 1.003-2.238 2.237-2.238h409.984c1.234 0 2.237 1.004 2.237 2.238v85.898l-202.61 106.86c-2.893 1.525-6.346 1.525-9.238 0l-119.835-63.203c-3.664-1.933-8.2-.528-10.133 3.135-1.933 3.664-.529 8.201 3.135 10.133l69.43 36.618-133.096 103.886zm353.105 0h-318.853l123.266-96.213 35.857 18.912c3.637 1.918 7.626 2.877 11.617 2.877 3.989 0 7.98-.959 11.617-2.877l35.857-18.912 109.724 85.643z"/></g></g></svg>