<?xml version="1.0" encoding="utf-8"?>
<!-- Generator: Adobe Illustrator 24.1.2, SVG Export Plug-In . SVG Version: 6.00 Build 0)  -->
<svg version="1.1" xmlns="http://www.w3.org/2000/svg" xmlns:xlink="http://www.w3.org/1999/xlink" x="0px" y="0px"
	 viewBox="0 0 512 512" style="enable-background:new 0 0 512 512;" xml:space="preserve">
<style type="text/css">
	.st0{fill:none;stroke:#FFFFFF;stroke-width:12;stroke-miterlimit:10;}
</style>
<g id="Capa_1">
	<g>
		<g>
			<g>
				<path class="st0" d="M295.1,430.8L274,409.7V291.1l100.8-59.9l65,17.4c1.5,0.4,3.1,0.6,4.5,0.6c7.7,0,14.8-5.2,16.9-12.9
					c2.5-9.3-3.1-18.9-12.3-21.4l-32.1-8.6l26-15.5c8.3-4.9,11-15.6,6.1-23.9c-4.9-8.3-15.6-11-23.9-6.1l-24.6,14.7
					c3-11.7,5.9-23.2,7.7-30.3c2.4-9.3-3.3-18.9-12.7-21.2s-18.9,3.3-21.2,12.7l-16.2,64l-84,49.8v-96.9l48.1-47.4
					c6.9-6.8,7-17.8,0.2-24.7s-17.8-7-24.7-0.2L274,104.5V75.4c0-9.6-7.9-17.5-17.5-17.5s-17.5,7.9-17.5,17.5v29.2
					c-9-8.9-18-17.7-23.6-23.2c-6.9-6.8-17.9-6.7-24.7,0.2s-6.7,17.9,0.2,24.7l48.1,47.4v96.9L155,201l-17.1-65.4
					c-2.4-9.3-12-14.9-21.3-12.5c-9.3,2.4-14.9,12-12.5,21.3c1.9,7.3,5.1,19.2,8.2,31.3L87,160.9c-8.3-4.9-19-2.2-23.9,6.1
					c-4.9,8.3-2.2,19,6.1,23.9l25.6,15.1l-31.5,8c-9.3,2.4-15,11.9-12.7,21.2c2.2,7.9,9.3,13.1,17.1,13.1c1.4,0,2.9-0.2,4.3-0.5
					l65.7-16.6l84.5,49.9l-85.1,50.5l-64.9-17.1c-9.3-2.4-18.9,3.1-21.3,12.4c-2.4,9.3,3.1,18.9,12.4,21.3l31.7,8.4l-24.8,14.8
					c-8.3,4.9-11,15.6-6.1,23.9c3.2,5.5,9.1,8.6,15,8.6c3.1,0,6.1-0.8,8.9-2.4l24.4-14.4c-3.1,11.8-6.2,23.5-8.1,30.8
					c-2.4,9.3,3.1,18.9,12.4,21.4c1.5,0.4,3,0.6,4.5,0.6c7.7,0,14.8-5.2,16.9-13l17.3-65.2l83.8-49.7v97.7l-48.1,47.4
					c-6.9,6.8-7,17.8-0.2,24.7c3.4,3.5,8,5.2,12.4,5.2c4.5,0,8.8-1.7,12.2-5.1l23.6-23.2v29.1c0,9.6,7.9,17.5,17.5,17.5
					c9.6,0,17.5-7.9,17.5-17.5v-28.7c8.6,8.7,17.2,17.3,22.5,22.6c3.4,3.4,7.9,5.2,12.4,5.2c4.5,0,8.9-1.7,12.3-5.1
					c6.8-6.8,6.8-17.9,0-24.7L295.1,430.8z"/>
				<path class="st0" d="M439.8,314.5l-63.7,17l-44.4-26.2c-8.3-4.9-19-2.2-23.9,6.1c-4.9,8.3-2.2,19,6.1,23.9l43.6,25.8l17.4,66.4
					c2.1,7.9,9.2,13,16.9,13c1.5,0,3-0.2,4.5-0.6c9.3-2.4,14.9-12,12.5-21.3c-2-7.6-5.2-19.9-8.5-32.2l25.5,15
					c2.8,1.7,5.9,2.4,8.9,2.4c5.9,0,11.8-3.1,15-8.6c4.9-8.3,2.2-19-6.1-23.9l-25.3-14.9l30.6-8.2c9.3-2.5,14.9-12.1,12.3-21.4
					C458.8,317.6,449.2,312,439.8,314.5z"/>
			</g>
		</g>
	</g>
</g>
<g id="Livello_2">
</g>
</svg>
