<?xml version="1.0" encoding="utf-8"?>
<!-- Generator: Adobe Illustrator 24.1.2, SVG Export Plug-In . SVG Version: 6.00 Build 0)  -->
<svg version="1.1" id="Capa_1" xmlns="http://www.w3.org/2000/svg" xmlns:xlink="http://www.w3.org/1999/xlink" x="0px" y="0px"
	 viewBox="0 0 512 512" style="enable-background:new 0 0 512 512;" xml:space="preserve">
<style type="text/css">
	.st0{fill:#FFFFFF;}
</style>
<g>
	<path class="st0" d="M205.6,445.4c-4.8,0-8.7,3.9-8.7,8.7v0.1c0,4.8,3.9,8.7,8.7,8.7c4.8,0,8.7-3.9,8.7-8.7
		C214.3,449.4,210.4,445.4,205.6,445.4z"/>
	<path class="st0" d="M387.8,83.4c40.5,0,73.6,33.1,73.6,73.6c0,4.8,3.9,8.7,8.7,8.7c4.8,0,8.7-3.9,8.7-8.7c0-50.2-40.9-91-91-91
		c-4.8,0-8.7,3.9-8.7,8.7C379.1,79.5,383,83.4,387.8,83.4z"/>
	<path class="st0" d="M379.1,124.8c22.5,0,40.9,18.4,40.9,40.9c0,4.8,3.9,8.7,8.7,8.7c4.8,0,8.7-3.9,8.7-8.7
		c0-32.1-26.1-58.3-58.3-58.3c-4.8,0-8.7,3.9-8.7,8.7C370.4,120.9,374.2,124.8,379.1,124.8z"/>
	<path class="st0" d="M474.3,373.8l-25.4-25.5l0,0l0,0l-30.3-30.3l0,0l0,0l-14.7-14.7c-5.8-5.8-13.5-9-21.7-9s-15.9,3.2-21.7,9
		l-19.9,19.9l-17-17l12.1-12.1l0,0l0,0l24.3-24.3c5.7-5.7,7-14.3,3.9-21.2l2.2-2.2c16.5-16.5,18.4-42.2,5.6-60.8l22.3-22.3
		c3.4-3.4,3.4-8.9,0-12.3c-3.4-3.4-8.9-3.4-12.3,0l-22.3,22.3c-7.9-5.4-17.2-8.4-27.1-8.4c-12.8,0-24.8,5-33.8,13.9l-2.2,2.2
		c-2.4-1-5-1.7-7.7-1.7l0,0c-5.1,0-9.9,2-13.6,5.6l-24.3,24.3l0,0l-12.1,12.1l-17-17.1l19.9-19.9c12-12,12-31.5,0-43.5l-14.6-14.6
		c0,0,0,0-0.1-0.1c-0.1-0.1,0,0-0.1-0.1L196.5,96c-0.1-0.1-0.1-0.1-0.2-0.2c-0.1-0.1-0.1-0.1-0.2-0.2L171,70.5
		c-2.9-3-6.8-4.5-11-4.5l0,0c-4.2,0-8.1,1.7-11,4.5l-74,74l-34.6,34.6c-3,3-4.5,6.9-4.5,11c0,4.2,1.7,8,4.5,11l25.3,25.3
		c0.1,0.1,0.1,0.1,0.2,0.2s0.1,0.1,0.2,0.2l30,30c0,0,0,0,0.1,0.1c0.1,0.1,0,0,0.1,0.1l14.6,14.7c6,6,13.8,9,21.7,9
		c7.8,0,15.7-3,21.7-9l22.3-22.3l17,17l-5.9,5.9c-6.9,6.9-10.7,16.1-10.7,25.9c0,6.9,1.8,13.4,5.3,19l-24.9,24.9
		c-7.6-4.3-15.6-7.7-23.7-10.1c-31.8-9-62.4-1-86.1,22.6c-8,8.1-8,21.1,0,29.2l50.5,50.5l-20.4,20.1c-11.4-6.1-25.9-4.3-35.6,5.2
		c-11.7,11.7-11.7,30.9,0,42.6c5.7,5.7,13.2,8.9,21.3,8.9l0,0c8,0,15.6-3.1,21.2-8.8s8.9-13.2,8.9-21.3c0-5-1.2-9.9-3.6-14.3
		l20.3-20.3l50.5,50.5c4,4,9.3,6.1,14.6,6.1s10.6-2,14.6-6.1c1.8-1.8,3.7-3.8,5.3-5.7c3.1-3.7,2.7-9.1-1-12.3
		c-3.7-3.1-9.1-2.7-12.3,1c-1.4,1.6-2.9,3.2-4.4,4.8c-0.8,0.8-1.8,1-2.3,1s-1.5-0.1-2.3-1L59.9,371.6c-1.2-1.3-1.2-3.4,0-4.6
		c24.4-24.4,51-23.3,69-18.2c8.5,2.4,16.7,6.3,24.3,11c0.5,0.4,1.1,0.8,1.7,1.1c11.4,7.7,21.4,17.7,29.1,29.1
		c0.3,0.6,0.7,1.2,1.1,1.7c5.6,8.8,9.7,18.3,12,28.1c1.1,4.7,5.7,7.6,10.4,6.5c4.7-1.1,7.6-5.7,6.5-10.4
		c-2.3-9.8-6.2-19.4-11.3-28.4l24.9-24.9c5.8,3.6,12.4,5.3,19,5.3c9.4,0,18.8-3.6,25.9-10.7l5.9-5.9l17,17l-22.3,22.3
		c-12,12-12,31.5,0,43.5l14.7,14.7l0,0l0,0l30.3,30.3l0,0l0,0l25.4,25.4c3,3,6.9,4.5,11,4.5c4.2,0,8.1-1.7,11-4.5l34.6-34.6l0,0l0,0
		l39.4-39.4l0,0l0,0l34.6-34.6C480.3,389.7,480.3,379.8,474.3,373.8L474.3,373.8z M72.6,490.2c-2.4,2.4-5.6,3.7-9,3.7l0,0
		c-3.4,0-6.6-1.3-9-3.7c-5-5-5-13,0-18c2.5-2.5,5.7-3.7,9-3.7c3.2,0,6.5,1.2,9,3.7c2.4,2.4,3.7,5.7,3.7,9
		C76.3,484.7,74.9,487.8,72.6,490.2z M412.3,336.5l18,18l-27.1,27.1l-18-18L412.3,336.5z M390.9,393.9l-27.1,27.1l-18-18l27.1-27.1
		L390.9,393.9z M372.7,315.7c2.5-2.5,5.8-3.9,9.5-3.9c3.6,0,7,1.4,9.5,3.9l8.5,8.5L373,351.4l-18-18L372.7,315.7z M342.7,345.7
		l18,18l-27.1,27.1l-18-18L342.7,345.7z M310.6,191.3c5.7-5.7,13.3-8.9,21.5-8.9c8.2,0,15.7,3.1,21.5,8.9
		c11.8,11.8,11.8,31.1,0,42.9l-1.2,1.2l-42.9-42.9L310.6,191.3z M287.2,197.3c0.4-0.4,0.9-0.5,1.2-0.5l0,0c0.3,0,0.8,0.1,1.2,0.5
		l56.3,56.3c0.1,0.1,0.2,0.2,0.3,0.3s0.2,0.2,0.3,0.3l1,1c0.7,0.7,0.7,1.8,0,2.5l-18.1,18.1l-60.3-60.3L287.2,197.3z M229.1,153.2
		c5.2,5.2,5.2,13.7,0,18.9l-17.7,17.7l-18-18l27.1-27.1L229.1,153.2z M172,229.3l-18-18l27.1-27.1l18,18L172,229.3z M141.7,199
		l-18-18l27.1-27.1l18,18L141.7,199z M208.3,132.5l-27.1,27.1l-18-18l27.1-27.1L208.3,132.5z M160,84.2l18,18l-27.1,27.1l-18-18
		L160,84.2z M120.6,123.6l18,18l-27.1,27.1l-18-18L120.6,123.6z M54,190.2l27.1-27.1l18,18L72,208.2L54,190.2z M102.2,238.4l-18-18
		l27.1-27.1l18,18L102.2,238.4z M142,259.3c-5.2,5.2-13.7,5.2-18.9,0l-8.5-8.5l27.1-27.1l18,18L142,259.3z M188.8,237l20.4-20.4
		l17,17l-20.4,20.4L188.8,237z M192.8,372.7c-6-7.7-13-14.6-20.7-20.7l21.7-21.7l20.7,20.7L192.8,372.7z M272.2,332.8L272.2,332.8
		L272.2,332.8l-12,12c-7.5,7.5-19.7,7.5-27.3,0l-33-33.1l0,0c-7.5-7.5-7.5-19.7,0-27.2l56.8-56.8L317,288l-11.8,11.8
		c-0.1,0.1-0.2,0.2-0.3,0.3c-0.1,0.1-0.2,0.2-0.3,0.3L272.2,332.8z M290.7,339l20.4-20.4l17,17L307.8,356L290.7,339z M285.5,421.7
		c-5.2-5.2-5.2-13.7,0-18.9l17.7-17.7l18,18L294,430.3L285.5,421.7z M306.4,442.6l27.1-27.1l18,18l-27.1,27.1L306.4,442.6z
		 M354.6,490.8l-18-18l27.1-27.1l18,18L354.6,490.8z M394.1,451.3l-18-18l27.1-27.1l18,18L394.1,451.3z M433.5,411.9l-18-18
		l27.1-27.1l18,18L433.5,411.9z"/>
</g>
</svg>
