<?xml version="1.0" encoding="utf-8"?>
<!-- Generator: Adobe Illustrator 24.1.2, SVG Export Plug-In . SVG Version: 6.00 Build 0)  -->
<svg version="1.1" id="Livello_1" xmlns="http://www.w3.org/2000/svg" xmlns:xlink="http://www.w3.org/1999/xlink" x="0px" y="0px"
	 viewBox="0 0 512 512" style="enable-background:new 0 0 512 512;" xml:space="preserve">
<style type="text/css">
	.st0{fill:#FFFFFF;}
</style>
<g>
	<g id="svg_1">
		<g id="svg_2">
			<g id="svg_3">
				<path id="svg_4" class="st0" d="M299.8,365.3c-3.3-2.7-8.1-2.2-10.7,1L195,480.6l42.5-112.2c0.9-2.3,0.6-5-0.9-7
					c-1.4-2.1-3.8-3.3-6.3-3.3h-45.6l52.7-100.4c1.2-2.4,1.2-5.2-0.2-7.5s-3.9-3.7-6.5-3.7h-76.2l88.4-172.1h56.6
					c4.2,0,7.6-3.4,7.6-7.6c0-4.2-3.4-7.6-7.6-7.6h-58.9c-4.3,0-8.3,2.4-10.3,6.3L138,245c-1.8,3.5-1.7,7.9,0.4,11.3
					c2.1,3.4,5.9,5.5,9.8,5.5H218l-49.7,94.7c-1.9,3.6-1.7,7.9,0.3,11.3c2.1,3.4,5.9,5.6,9.9,5.6h40.8l-46.6,122.9
					c-2.1,5.3,0,11.2,4.9,14.1c1.8,1,3.8,1.6,5.9,1.6c3.4,0,6.7-1.5,8.9-4.2l108.5-131.7C303.6,372.8,303.1,368,299.8,365.3
					L299.8,365.3z"/>
				<path id="svg_5" class="st0" d="M374.6,164.6c-2-3.7-5.9-6-10.1-6h-48.2l48-82.2c2.1-3.6,2.1-8,0-11.5c-2-3.6-5.9-5.8-10-5.8
					h-29.1c-4.2,0-7.6,3.4-7.6,7.6c0,4.2,3.4,7.6,7.6,7.6h22.5l-51.4,88.1c-1.4,2.4-1.4,5.3,0,7.6c1.4,2.4,3.9,3.8,6.6,3.8h54.6
					l-75.1,117.6c-1.5,2.4-1.6,5.3-0.3,7.8c1.3,2.4,3.9,4,6.7,4h52.1l-36.6,44.5c-2.7,3.3-2.2,8.1,1,10.7c1.4,1.2,3.1,1.7,4.8,1.7
					c2.2,0,4.4-0.9,5.9-2.8l41.6-50.5c2.8-3.4,3.5-8.2,1.6-12.3c-1.9-4-6-6.6-10.4-6.6h-46.1l71.2-111.6
					C376.5,172.8,376.6,168.3,374.6,164.6L374.6,164.6z"/>
			</g>
		</g>
	</g>
	<g id="svg_6">
	</g>
	<g id="svg_7">
	</g>
	<g id="svg_8">
	</g>
	<g id="svg_9">
	</g>
	<g id="svg_10">
	</g>
	<g id="svg_11">
	</g>
	<g id="svg_12">
	</g>
	<g id="svg_13">
	</g>
	<g id="svg_14">
	</g>
	<g id="svg_15">
	</g>
	<g id="svg_16">
	</g>
	<g id="svg_17">
	</g>
	<g id="svg_18">
	</g>
	<g id="svg_19">
	</g>
	<g id="svg_20">
	</g>
</g>
</svg>
