<?xml version="1.0" encoding="utf-8"?>
<!-- Generator: Adobe Illustrator 24.1.2, SVG Export Plug-In . SVG Version: 6.00 Build 0)  -->
<svg version="1.1" id="Capa_1" xmlns="http://www.w3.org/2000/svg" xmlns:xlink="http://www.w3.org/1999/xlink" x="0px" y="0px"
	 viewBox="0 0 512 512" style="enable-background:new 0 0 512 512;" xml:space="preserve">
<g>
	<g>
		<path d="M437,75C388.7,26.6,324.4,0,256,0S123.3,26.6,75,75C26.6,123.3,0,187.6,0,256s26.6,132.7,75,181
			c48.4,48.4,112.6,75,181,75s132.7-26.6,181-75c48.4-48.4,75-112.6,75-181S485.4,123.3,437,75z M256,492C125.9,492,20,386.1,20,256
			S125.9,20,256,20s236,105.9,236,236S386.1,492,256,492z"/>
	</g>
</g>
<g>
	<g>
		<path d="M468.1,215c-13.5-70-60.7-128.8-126.3-157.3c-5.1-2.2-11,0.1-13.1,5.2c-2.2,5.1,0.1,11,5.2,13.1
			c59.6,25.8,102.4,79.1,114.6,142.7c0.9,4.8,5.1,8.1,9.8,8.1c0.6,0,1.3-0.1,1.9-0.2C465.6,225.6,469.1,220.4,468.1,215z"/>
	</g>
</g>
<g>
	<g>
		<path d="M302.4,45l-0.3-0.1c-5.4-1.2-10.7,2.3-11.9,7.7c-1.2,5.4,2.3,10.7,7.7,11.9h0.1c0.7,0.2,1.5,0.2,2.2,0.2
			c4.6,0,8.7-3.2,9.8-7.8C311.2,51.6,307.8,46.2,302.4,45z"/>
	</g>
</g>
<g>
	<g>
		<path d="M180.4,436.9C119.7,411.5,76,357.8,63.5,293.3c-1-5.4-6.3-9-11.7-7.9c-5.4,1-9,6.3-7.9,11.7c6.7,35,22.3,68.1,44.9,95.7
			c22.4,27.3,51.4,49,83.9,62.6c1.3,0.5,2.6,0.8,3.9,0.8c3.9,0,7.6-2.3,9.2-6.1C187.9,444.9,185.5,439,180.4,436.9z"/>
	</g>
</g>
<g>
	<g>
		<path d="M214.1,447.5l-0.6-0.1c-5.4-1.2-10.7,2.2-11.9,7.6s2.2,10.7,7.6,11.9l0.7,0.2c0.7,0.2,1.4,0.2,2.1,0.2
			c4.6,0,8.7-3.2,9.8-7.9C222.9,454,219.5,448.7,214.1,447.5z"/>
	</g>
</g>
<g>
	<g>
		<path d="M459.4,290.3c-5.4-1.2-10.7,2.2-11.9,7.6c-16.7,76.6-77.2,135.7-154.2,150.5c-5.4,1-9,6.3-7.9,11.7
			c0.9,4.8,5.1,8.1,9.8,8.1c0.6,0,1.3-0.1,1.9-0.2c41.5-8,79.5-27.9,109.9-57.6c30.3-29.6,51.1-67.1,60.1-108.3
			C468.2,296.8,464.8,291.5,459.4,290.3z"/>
	</g>
</g>
<g>
	<g>
		<path d="M226.7,51.8c-1-5.4-6.3-9-11.7-7.9c-41.5,8-79.5,27.9-109.9,57.6C74.7,131.1,53.9,168.6,45,209.8
			c-1.2,5.4,2.2,10.7,7.6,11.9c0.7,0.2,1.4,0.2,2.1,0.2c4.6,0,8.7-3.2,9.8-7.9c16.7-76.6,77.2-135.7,154.2-150.5
			C224.2,62.5,227.7,57.3,226.7,51.8z"/>
	</g>
</g>
<g>
	<g>
		<path d="M256,222c-18.7,0-34,15.3-34,34s15.3,34,34,34s34-15.3,34-34S274.7,222,256,222z M256,270c-7.7,0-14-6.3-14-14
			s6.3-14,14-14c7.7,0,14,6.3,14,14C270,263.7,263.7,270,256,270z"/>
	</g>
</g>
<g>
	<g>
		<path d="M256.2,40c-5.5,0-10,4.5-10,10v22.4c0,5.5,4.5,10,10,10s10-4.5,10-10V50C266.2,44.5,261.7,40,256.2,40z"/>
	</g>
</g>
<g>
	<g>
		<path d="M255.8,422.5c-5.5,0-10,4.5-10,10V462c0,5.5,4.5,10,10,10c5.5,0,10-4.5,10-10v-29.5C265.8,426.9,261.4,422.5,255.8,422.5z
			"/>
	</g>
</g>
<g>
	<g>
		<path d="M462,246.2h-27c-5.5,0-10,4.5-10,10c0,5.5,4.5,10,10,10h27c5.5,0,10-4.5,10-10C472,250.6,467.5,246.2,462,246.2z"/>
	</g>
</g>
<g>
	<g>
		<path d="M79,245.8H50c-5.5,0-10,4.5-10,10c0,5.5,4.5,10,10,10h29c5.5,0,10-4.5,10-10C89,250.3,84.5,245.8,79,245.8z"/>
	</g>
</g>
<g>
	<g>
		<path d="M232,246h-45.7c-5.5,0-10,4.5-10,10s4.5,10,10,10H232c5.5,0,10-4.5,10-10S237.5,246,232,246z"/>
	</g>
</g>
<g>
	<g>
		<path d="M256,128.3c-5.5,0-10,4.5-10,10V232c0,5.5,4.5,10,10,10s10-4.5,10-10v-93.7C266,132.8,261.5,128.3,256,128.3z"/>
	</g>
</g>
</svg>
