<?xml version="1.0" encoding="utf-8"?>
<!-- Generator: Adobe Illustrator 24.1.2, SVG Export Plug-In . SVG Version: 6.00 Build 0)  -->
<svg version="1.1" id="Livello_1" xmlns="http://www.w3.org/2000/svg" xmlns:xlink="http://www.w3.org/1999/xlink" x="0px" y="0px"
	 viewBox="0 0 512 512" style="enable-background:new 0 0 512 512;" xml:space="preserve">
<style type="text/css">
	.st0{fill:none;}
	.st1{fill:#FFFFFF;}
</style>
<g>
	<rect id="canvas_background" x="-1" y="10" class="st0" width="582" height="402"/>
</g>
<g>
	<g id="svg_1">
		<g id="svg_2">
			<path id="svg_3" class="st1" d="M95.8,387.4L95.8,387.4c-4.2,0-7.5,4.2-7.5,9.3c0,5.1,3.4,9.3,7.5,9.3s7.5-4.2,7.5-9.3
				C103.3,391.5,99.9,387.4,95.8,387.4z"/>
		</g>
	</g>
	<g id="svg_4">
		<g id="svg_5">
			<path id="svg_6" class="st1" d="M159.9,387.4L159.9,387.4c-4.2,0-7.5,4.2-7.5,9.3c0,5.1,3.4,9.3,7.5,9.3s7.5-4.2,7.5-9.3
				C167.4,391.5,164,387.4,159.9,387.4L159.9,387.4z"/>
		</g>
	</g>
	<g id="svg_7">
		<g id="svg_8">
			<path id="svg_9" class="st1" d="M424.4,387.4L424.4,387.4c-4.2,0-7.5,4.2-7.5,9.3c0,5.1,3.4,9.3,7.5,9.3s7.5-4.2,7.5-9.3
				C431.9,391.5,428.6,387.4,424.4,387.4L424.4,387.4z"/>
		</g>
	</g>
	<g id="svg_10">
		<g id="svg_11">
			<path id="svg_12" class="st1" d="M505.1,274.9L495,262.4l-20.3-75.6c3-1.2,5.2-4.7,5.2-8.9c0-5.1-3.4-9.3-7.5-9.3h-72.7v-40.4
				c0-10.6-7-19.2-15.5-19.2H15.5C7,109,0,117.6,0,128.2V347c0,10.6,7,19.2,15.5,19.2H24v20.5c0,10.6,7,19.2,15.5,19.2h17.3
				c3.5,22.6,19.6,39.8,38.8,39.8c13.2,0,24.9-8,32.1-20.4c7.2,12.3,18.9,20.4,32.1,20.4c19.3,0,35.3-17.1,38.8-39.8h186.8
				c3.5,22.6,19.6,39.8,38.8,39.8c21.8,0,39.6-22,39.6-49.1c0-0.2,0-0.4,0-0.6h32.6c8.6,0,15.5-8.6,15.5-19.2v-81.2
				C512,287.8,509.6,280.4,505.1,274.9L505.1,274.9z M56.8,387.4H39.6c-0.3,0-0.5-0.3-0.5-0.6v-20.5h25.6
				C60.8,372.3,58.1,379.5,56.8,387.4z M95.7,427.2c-13.5,0-24.6-13.7-24.6-30.5c0-16.7,10.9-30.4,24.4-30.5h0.3
				c13.5,0.1,24.4,13.7,24.4,30.5C120.2,413.5,109.2,427.2,95.7,427.2z M159.8,427.2c-13.5,0-24.6-13.7-24.6-30.5
				c0-16.7,10.9-30.4,24.4-30.5h0.3c13.5,0.1,24.4,13.7,24.4,30.5C184.4,413.5,173.4,427.2,159.8,427.2L159.8,427.2z M385.5,387.4
				H198.6c-1.2-7.9-4-15.1-7.9-21.2h145.4c4.1,0,7.5-4.2,7.5-9.3s-3.4-9.3-7.5-9.3H15.5c-0.3,0-0.5-0.3-0.5-0.6V128.2
				c0-0.4,0.2-0.6,0.5-0.6h368.7c0.3,0,0.5,0.3,0.5,0.6v219.4h-16.5c-4.1,0-7.5,4.2-7.5,9.3s3.4,9.3,7.5,9.3h25.1
				C389.5,372.3,386.7,379.5,385.5,387.4z M480.7,268.1h-48.4c-0.3,0-0.5-0.3-0.5-0.6V227h37.9L480.7,268.1L480.7,268.1z
				 M424.3,427.2c-13.5,0-24.6-13.7-24.6-30.5c0-16.7,10.9-30.4,24.4-30.5h0.2c0,0,0,0,0.1,0c13.5,0,24.5,13.7,24.5,30.5
				S437.9,427.2,424.3,427.2z M497,376.8c0,0.4-0.2,0.6-0.5,0.6h-35.8c-6-17.5-20.1-29.8-36.4-29.8c-0.1,0-0.1,0-0.2,0h-24.4V187.9
				l0,0c0-0.4,0.2-0.6,0.5-0.6H459l5.7,21.2h-40.4c-4.1,0-7.5,4.2-7.5,9.3v49.7c0,10.6,7,19.2,15.5,19.2h61l1.1,1.4
				c1.6,2,2.5,4.7,2.5,7.5v22.2h-8.5c-4.1,0-7.5,4.2-7.5,9.3s3.4,9.3,7.5,9.3h8.5L497,376.8L497,376.8z"/>
		</g>
	</g>
	<g id="svg_13">
		<g id="svg_14">
			<path id="svg_15" class="st1" d="M360.2,307.8H39.6c-4.1,0-7.5,4.2-7.5,9.3c0,5.1,3.4,9.3,7.5,9.3h320.6c4.1,0,7.5-4.2,7.5-9.3
				S364.4,307.8,360.2,307.8z"/>
		</g>
	</g>
	<g id="svg_16">
	</g>
	<g id="svg_17">
	</g>
	<g id="svg_18">
	</g>
	<g id="svg_19">
	</g>
	<g id="svg_20">
	</g>
	<g id="svg_21">
	</g>
	<g id="svg_22">
	</g>
	<g id="svg_23">
	</g>
	<g id="svg_24">
	</g>
	<g id="svg_25">
	</g>
	<g id="svg_26">
	</g>
	<g id="svg_27">
	</g>
	<g id="svg_28">
	</g>
	<g id="svg_29">
	</g>
	<g id="svg_30">
	</g>
</g>
</svg>
