<?xml version="1.0" encoding="utf-8"?>
<!-- Generator: Adobe Illustrator 24.1.2, SVG Export Plug-In . SVG Version: 6.00 Build 0)  -->
<svg version="1.1" id="Livello_1" xmlns="http://www.w3.org/2000/svg" xmlns:xlink="http://www.w3.org/1999/xlink" x="0px" y="0px"
	 viewBox="0 0 442 442" style="enable-background:new 0 0 442 442;" xml:space="preserve">
<style type="text/css">
	.st0{fill:#FFFFFF;}
</style>
<g>
	<path id="svg_2" class="st0" d="M230.3,187.4c-3.3,3.3-3.3,8.6,0,11.9c3.3,3.3,8.6,3.3,11.9,0l6.9-6.9c2.5-2.5,3.2-6.3,1.7-9.5
		c-4.6-9.9-7-20.2-7-30.6c0-21.1,9.2-40.9,24.6-54.6l0,55c0,2.8,1.4,5.3,3.6,6.9l39.9,27.6c2.9,2,6.7,2,9.6,0l39.9-27.6
		c2.3-1.6,3.6-4.2,3.6-6.9l0-55c15.5,13.7,24.6,33.5,24.6,54.6c0,19.5-7.6,37.8-21.4,51.6c-13.8,13.8-32.1,21.3-51.5,21.3
		c0,0,0,0-0.1,0c-6.7,0-19.8-3.2-24.3-4.5c-2.9-0.8-6,0-8.2,2.2l-25.5,25.5c-3.3,3.3-3.3,8.6,0,11.9c1.6,1.6,3.8,2.5,5.9,2.5
		s4.3-0.8,5.9-2.5l22.1-22.1c6.2,1.5,16.8,3.9,24,3.9c0,0,0,0,0.1,0c23.9,0,46.5-9.3,63.4-26.3c16.9-16.9,26.3-39.5,26.3-63.4
		c0-32.3-17.5-62.2-45.7-78.1c-2.6-1.5-5.8-1.4-8.4,0.1c-2.6,1.5-4.2,4.3-4.2,7.3l0,66.8L316.7,170l-31.5-21.8l0-66.8
		c0-3-1.6-5.7-4.2-7.3c-2.6-1.5-5.8-1.5-8.4-0.1C244.5,90,227,120,227,152.3c0,10.9,2.1,21.7,6.2,32.2L230.3,187.4L230.3,187.4z"/>
	<path id="svg_3" class="st0" d="M208,298.9L91.5,415.5c-4.4,4.4-10.2,6.8-16.4,6.8c0,0,0,0,0,0c-6.2,0-12-2.4-16.4-6.8
		c-4.4-4.4-6.8-10.2-6.8-16.4c0-6.2,2.4-12,6.8-16.4L159,282.5c3.3-3.3,3.3-8.6,0-11.9c-3.3-3.3-8.6-3.3-11.9,0L46.9,370.8
		c-7.6,7.5-11.7,17.6-11.7,28.2c0,10.7,4.1,20.7,11.7,28.3c7.6,7.6,17.6,11.7,28.3,11.7c0,0,0,0,0,0c10.7,0,20.7-4.2,28.3-11.7
		l116.5-116.5c3.3-3.3,3.3-8.6,0-11.9C216.6,295.7,211.3,295.7,208,298.9z"/>
	<path id="svg_5" class="st0" d="M349.6,346.3c-0.9-0.9-1.9-1.5-3.1-2l-24.1-8.7l-87-87l14.1-14.1c3.3-3.3,3.3-8.6,0-11.9
		c-2.5-2.5-6.2-3.1-9.2-1.8L108.7,89.2c-8-8-18.6-12.4-29.8-12.4c0,0,0,0,0,0c-11.3,0-21.9,4.4-29.9,12.4c-8,8-12.4,18.6-12.4,29.9
		c0,11.3,4.4,21.9,12.4,29.9l131.6,131.6c-1.3,3.1-0.7,6.7,1.8,9.2c3.3,3.3,8.6,3.3,11.9,0l14.1-14.1l87,87l8.7,24.1
		c0.4,1.2,1.1,2.2,2,3.1l48.8,48.8c1.6,1.6,3.8,2.5,5.9,2.5s4.3-0.8,5.9-2.5l31.8-31.8c1.6-1.6,2.5-3.7,2.5-5.9
		c0-2.2-0.9-4.4-2.5-5.9L349.6,346.3L349.6,346.3z M217.6,242.6C217.6,242.7,217.6,242.7,217.6,242.6L192,268.3L60.8,137.1
		c-4.8-4.8-7.5-11.2-7.5-18c0-6.8,2.6-13.2,7.5-18c4.8-4.8,11.2-7.4,18-7.4c0,0,0,0,0,0c6.8,0,13.2,2.7,18,7.5L228,232.3
		L217.6,242.6C217.6,242.6,217.6,242.6,217.6,242.6z M360.7,420.9l-41.6-41.6l-8.7-24.1c-0.4-1.2-1.1-2.2-2-3.1l-88.3-88.3l3.4-3.4
		l88.3,88.3c0.9,0.9,1.9,1.5,3.1,2l24.1,8.7l41.6,41.6L360.7,420.9z"/>
</g>
<g id="svg_7">
</g>
<g id="svg_8">
</g>
<g id="svg_9">
</g>
<g id="svg_10">
</g>
<g id="svg_11">
</g>
<g id="svg_12">
</g>
<g id="svg_13">
</g>
<g id="svg_14">
</g>
<g id="svg_15">
</g>
<g id="svg_16">
</g>
<g id="svg_17">
</g>
<g id="svg_18">
</g>
<g id="svg_19">
</g>
<g id="svg_20">
</g>
<g id="svg_21">
</g>
</svg>
